<svg id="Layer_1" data-name="Layer 1" xmlns="http://www.w3.org/2000/svg" xmlns:xlink="http://www.w3.org/1999/xlink" viewBox="0 0 64 64">
    <defs>
        <style>
            .cls-1,.cls-3{isolation:isolate;opacity:0.3;}.cls-2{fill:url(#linear-gradient);}.cls-3{stroke:#000;stroke-miterlimit:10;stroke-width:4px;}.cls-3,.cls-4,.cls-6{fill-rule:evenodd;}.cls-4{fill:url(#linear-gradient-2);}.cls-5,.cls-6{fill:#242424;}
        </style>
        <linearGradient id="linear-gradient" x1="32.1" y1="28.88" x2="32.1" y2="4.4" gradientUnits="userSpaceOnUse">
            <stop offset="0" stop-color="#545454"/>
            <stop offset="1" stop-color="#bfbfbf"/>
        </linearGradient>
        <linearGradient id="linear-gradient-2" x1="-661.81" y1="2573.71" x2="-661.96" y2="2540.99" gradientTransform="matrix(1, 0, 0, -1, 694, 2606)" gradientUnits="userSpaceOnUse">
            <stop offset="0" stop-color="#bfbfbf"/>
            <stop offset="1" stop-color="#545454"/>
        </linearGradient>
    </defs>
    <path class="cls-1" d="M43.75,16.41H41.3a.88.88,0,0,1-.78-.57l-.58-1.39a.86.86,0,0,1,.15-.94l1.74-1.74a.59.59,0,0,0,0-.83L39.68,8.79a.6.6,0,0,0-.84,0l-1.73,1.73a.87.87,0,0,1-1,.15l-1.39-.58a.87.87,0,0,1-.56-.78V6.87a.59.59,0,0,0-.59-.59h-3a.58.58,0,0,0-.59.59V9.31a.88.88,0,0,1-.57.78L28,10.67a.86.86,0,0,1-.94-.15L25.35,8.79a.59.59,0,0,0-.83,0l-2.15,2.15a.59.59,0,0,0,0,.83l1.73,1.74a.86.86,0,0,1,.15.94l-.58,1.39a.88.88,0,0,1-.78.57H20.45a.58.58,0,0,0-.59.59v3a.59.59,0,0,0,.59.59h2.44a.87.87,0,0,1,.78.56l.58,1.39a.87.87,0,0,1-.15,1l-1.73,1.73a.6.6,0,0,0,0,.84l2.15,2.15a.59.59,0,0,0,.83,0l1.74-1.74a.86.86,0,0,1,.94-.15l1.39.58a.88.88,0,0,1,.57.78v2.45a.59.59,0,0,0,.59.59h3a.6.6,0,0,0,.59-.59V27.72a.87.87,0,0,1,.56-.78l1.39-.58a.87.87,0,0,1,1,.15l1.73,1.74a.6.6,0,0,0,.84,0l2.15-2.15a.6.6,0,0,0,0-.84l-1.74-1.73a.87.87,0,0,1-.15-1l.58-1.39a.87.87,0,0,1,.78-.56h2.45a.6.6,0,0,0,.59-.59V17A.59.59,0,0,0,43.75,16.41ZM32.1,22.17a3.66,3.66,0,1,1,3.65-3.65A3.66,3.66,0,0,1,32.1,22.17Z"/>
    <path class="cls-2" d="M43.75,14.53H41.3a.87.87,0,0,1-.78-.56l-.58-1.39a.87.87,0,0,1,.15-.95L41.83,9.9a.6.6,0,0,0,0-.84L39.68,6.91a.6.6,0,0,0-.84,0L37.11,8.65a.87.87,0,0,1-1,.15l-1.39-.58a.89.89,0,0,1-.56-.78V5a.6.6,0,0,0-.59-.59h-3A.59.59,0,0,0,30,5V7.44a.9.9,0,0,1-.57.78L28,8.8a.86.86,0,0,1-.94-.15L25.35,6.91a.59.59,0,0,0-.83,0L22.37,9.06a.6.6,0,0,0,0,.84l1.73,1.73a.87.87,0,0,1,.15.95L23.67,14a.87.87,0,0,1-.78.56H20.45a.59.59,0,0,0-.59.59v3a.58.58,0,0,0,.59.59h2.44a.88.88,0,0,1,.78.56l.58,1.4a.86.86,0,0,1-.15.94l-1.73,1.74a.59.59,0,0,0,0,.83l2.15,2.15a.59.59,0,0,0,.83,0l1.74-1.73a.86.86,0,0,1,.94-.15l1.39.58a.88.88,0,0,1,.57.77v2.45a.58.58,0,0,0,.59.59h3a.59.59,0,0,0,.59-.59V25.84a.87.87,0,0,1,.56-.77l1.39-.58a.87.87,0,0,1,1,.15l1.73,1.73a.6.6,0,0,0,.84,0l2.15-2.15a.59.59,0,0,0,0-.83l-1.74-1.74a.86.86,0,0,1-.15-.94l.58-1.4a.88.88,0,0,1,.78-.56h2.45a.59.59,0,0,0,.59-.59v-3A.6.6,0,0,0,43.75,14.53ZM32.1,20.3a3.66,3.66,0,1,1,3.65-3.66A3.66,3.66,0,0,1,32.1,20.3Z"/>
    <path class="cls-3" d="M49.05,46.1c-1.5-4.1-4.7-11.5-7.7-11.5-4.7,0-4.7,1.3-6.5,1.3h-5.6c-1.8,0-1.8-1.3-6.5-1.3-2.9,0-6.2,7.4-7.7,11.5-2.7,8-2.9,11.5,2.7,11.5,6.2,0,6.2-5.2,14.2-5.2s8.3,5.2,14.2,5.2C51.75,57.6,51.75,54.1,49.05,46.1Z"/>
    <path class="cls-4" d="M51,44.8c-1.6-4.6-5.3-12.8-8.5-12.8-5.3,0-5.3,1.4-7.2,1.4h-6.2c-2,0-2-1.4-7.2-1.4-3.3,0-6.9,8.2-8.5,12.8-3,8.9-3.3,12.8,3,12.8,6.9,0,6.9-5.8,15.8-5.8s9,5.8,15.6,5.8C54,57.6,54,53.7,51,44.8Z"/>
    <path class="cls-5" d="M41.49,41.19a2,2,0,1,0-2-1.95A2,2,0,0,0,41.49,41.19Z"/>
    <path class="cls-5" d="M45.39,45.09a2,2,0,1,0-2-2A2,2,0,0,0,45.39,45.09Z"/>
    <path class="cls-5" d="M37.69,45.09a2,2,0,1,0-1.95-2A2,2,0,0,0,37.69,45.09Z"/>
    <path class="cls-5" d="M41.49,48.5a2,2,0,1,0-2-2A2,2,0,0,0,41.49,48.5Z"/>
    <path class="cls-6" d="M27.42,44.47h-3a.6.6,0,0,0-.6.61v2.71a.59.59,0,0,1-.6.6H21.63a.6.6,0,0,1-.61-.6V45.08a.6.6,0,0,0-.6-.61H17.71a.59.59,0,0,1-.6-.6V42.22a.59.59,0,0,1,.6-.61h2.71A.59.59,0,0,0,21,41V38a.6.6,0,0,1,.61-.6h1.65a.59.59,0,0,1,.6.6v3a.6.6,0,0,0,.61.6h3a.6.6,0,0,1,.6.61v1.65C28,44.17,27.72,44.47,27.42,44.47Z"/>
</svg>
