<svg id="Layer_1" data-name="Layer 1" xmlns="http://www.w3.org/2000/svg" viewBox="0 0 16 16" width="12" height="14">
    <defs>
        <style>
            .cls-1,.cls-2{fill:#fff;}.cls-1{isolation:isolate;opacity:0.5;}.cls-2{fill-rule:evenodd;}
        </style>
    </defs>
    <path class="cls-1" d="M11.43,3.23h-.72a.25.25,0,0,1-.23-.16l-.17-.41a.28.28,0,0,1,0-.28l.51-.51a.18.18,0,0,0,0-.25L10.23,1A.16.16,0,0,0,10,1l-.52.51a.23.23,0,0,1-.27,0l-.41-.17a.26.26,0,0,1-.17-.23V.42A.18.18,0,0,0,8.45.25h-.9a.18.18,0,0,0-.17.17v.72a.26.26,0,0,1-.17.23l-.41.17a.23.23,0,0,1-.27,0L6,1a.16.16,0,0,0-.24,0l-.63.63a.18.18,0,0,0,0,.25l.51.51a.28.28,0,0,1,0,.28l-.17.41a.25.25,0,0,1-.23.16H4.57a.17.17,0,0,0-.17.18V4.3a.17.17,0,0,0,.17.18h.72a.25.25,0,0,1,.23.16l.17.41a.28.28,0,0,1,0,.28l-.51.51a.18.18,0,0,0,0,.25l.63.63a.16.16,0,0,0,.24,0l.52-.51a.25.25,0,0,1,.27,0l.41.17a.27.27,0,0,1,.17.23v.72a.18.18,0,0,0,.17.18h.9a.18.18,0,0,0,.17-.18V6.56a.27.27,0,0,1,.17-.23l.41-.17a.25.25,0,0,1,.27,0l.52.51a.16.16,0,0,0,.24,0l.63-.63a.18.18,0,0,0,0-.25l-.51-.51a.28.28,0,0,1,0-.28l.17-.41a.25.25,0,0,1,.23-.16h.72a.17.17,0,0,0,.17-.18V3.41A.17.17,0,0,0,11.43,3.23ZM8,4.93A1.08,1.08,0,1,1,9.08,3.85,1.08,1.08,0,0,1,8,4.93Z"/>
    <path class="cls-2" d="M13.69,11.92c-.49-1.38-1.57-3.84-2.57-3.84-1.57,0-1.57.42-2.17.42H7.09c-.6,0-.6-.42-2.17-.42-1,0-2.07,2.46-2.58,3.84-.88,2.66-1,3.83.89,3.83C5.29,15.75,5.29,14,8,14s2.77,1.73,4.72,1.73S14.58,14.58,13.69,11.92Zm-6.39,0H5.83v1.38h-1V11.94H3.43V11H4.84V9.44h1V11H7.3Zm3.37-2.57a.76.76,0,0,1,.75.75.75.75,0,0,1-.75.74.74.74,0,0,1-.74-.74A.75.75,0,0,1,10.67,9.37Zm-2,2a.75.75,0,0,1,.74-.75.76.76,0,0,1,.75.75.75.75,0,0,1-.75.74A.74.74,0,0,1,8.67,11.38Zm2,2a.74.74,0,0,1-.74-.74.75.75,0,0,1,.74-.75.76.76,0,0,1,.75.75A.75.75,0,0,1,10.67,13.38Zm1.26-1.26a.74.74,0,0,1-.74-.74.75.75,0,0,1,.74-.75.76.76,0,0,1,.75.75A.75.75,0,0,1,11.93,12.12Z"/>
</svg>
