<svg id="Layer_1" data-name="Layer 1" xmlns="http://www.w3.org/2000/svg" viewBox="0 0 64 64" width="64" height="64">
    <defs>
        <style>
            .cls-1,.cls-2{fill:#fff;}.cls-1{isolation:isolate;opacity:0.5;}.cls-2{fill-rule:evenodd;}
        </style>
    </defs>
    <path class="cls-1" d="M45.72 12.92h-2.88a1 1 0 0 1 -0.92 -0.64l-0.68 -1.64a1.12 1.12 0 0 1 0 -1.12l2.04 -2.04a0.72 0.72 0 0 0 0 -1L40.92 4A0.64 0.64 0 0 0 40 4l-2.08 2.04a0.92 0.92 0 0 1 -1.08 0l-1.64 -0.68a1.04 1.04 0 0 1 -0.68 -0.92V1.68a0.72 0.72 0 0 0 -0.72 -0.68h-3.6a0.72 0.72 0 0 0 -0.68 0.68v2.88a1.04 1.04 0 0 1 -0.68 0.92l-1.64 0.68a0.92 0.92 0 0 1 -1.08 0L24 4a0.64 0.64 0 0 0 -0.96 0l-2.52 2.52a0.72 0.72 0 0 0 0 1l2.04 2.04a1.12 1.12 0 0 1 0 1.12l-0.68 1.64a1 1 0 0 1 -0.92 0.64h-2.68a0.68 0.68 0 0 0 -0.68 0.72v3.52a0.68 0.68 0 0 0 0.68 0.72h2.88a1 1 0 0 1 0.92 0.64l0.68 1.64a1.12 1.12 0 0 1 0 1.12l-2.04 2.04a0.72 0.72 0 0 0 0 1l2.52 2.52a0.64 0.64 0 0 0 0.96 0l2.08 -2.04a1 1 0 0 1 1.08 0l1.64 0.68a1.08 1.08 0 0 1 0.68 0.92v2.88a0.72 0.72 0 0 0 0.68 0.72h3.6a0.72 0.72 0 0 0 0.68 -0.72v-3.08a1.08 1.08 0 0 1 0.68 -0.92l1.64 -0.68a1 1 0 0 1 1.08 0l2.08 2.04a0.64 0.64 0 0 0 0.96 0l2.52 -2.52a0.72 0.72 0 0 0 0 -1l-2.04 -2.04a1.12 1.12 0 0 1 0 -1.12l0.68 -1.64a1 1 0 0 1 0.92 -0.64h2.88a0.68 0.68 0 0 0 0.68 -0.72v-3.36a0.68 0.68 0 0 0 -1 -0.72M32 19.72a4.32 4.32 0 1 1 4.32 -4.32A4.32 4.32 0 0 1 32 19.72"/>
    <path class="cls-2" d="M54.76 47.68c-1.96 -5.52 -6.28 -15.36 -10.28 -15.36 -6.28 0 -6.28 1.68 -8.68 1.68H28.36c-2.4 0 -2.4 -1.68 -8.68 -1.68 -4 0 -8.28 9.84 -10.32 15.36 -3.52 10.64 -4 15.32 3.56 15.32C21.16 63 21.16 56 32 56s11.08 6.92 18.88 6.92 7.44 -4.6 3.88 -15.24m-25.56 0H23.32v5.52h-4v-5.44h-5.6V44h5.64V37.76h4V44H29.2Zm13.48 -10.28a3.04 3.04 0 0 1 3 3 3 3 0 0 1 -3 2.96 2.96 2.96 0 0 1 -2.96 -2.96 3 3 0 0 1 2.96 -2.92Zm-8 8a3 3 0 0 1 2.96 -3 3.04 3.04 0 0 1 3 3 3 3 0 0 1 -3 2.96 2.96 2.96 0 0 1 -2.96 -2.84Zm8 8a2.96 2.96 0 0 1 -2.96 -2.96 3 3 0 0 1 2.96 -3 3.04 3.04 0 0 1 3 3 3 3 0 0 1 -3 3.08Zm5.04 -5.04a2.96 2.96 0 0 1 -2.96 -2.96 3 3 0 0 1 2.96 -3 3.04 3.04 0 0 1 3 3 3 3 0 0 1 -3 3.08Z"/>
</svg>
